<svg width="300" height="80" xmlns="http://www.w3.org/2000/svg">
 <g>
  <title>Layer 1</title>
  <g stroke="null" id="layer1">
   <path stroke="null" d="m98.277603,31.615988l1.342026,-11.090944c0.149757,-1.237913 0.108574,-2.080774 -0.12355,-2.52858c-0.232193,-0.447723 -0.702797,-0.671618 -1.411835,-0.671654c-0.627281,0.000036 -1.132065,0.171249 -1.514343,0.513615c-0.382347,0.342455 -0.61335,0.842896 -0.693016,1.501339l-0.143433,1.18528l-1.342033,11.090944l3.886185,0zm-1.292145,10.206053l12.394836,0l-0.755348,6.714832c-0.739464,6.110729 -2.026558,9.929928 -3.861275,11.4576c-1.834831,1.527687 -5.847488,2.291531 -12.038086,2.291531c-6.354248,0 -10.253067,-0.796768 -11.69651,-2.390305c-1.443497,-1.593513 -1.803467,-5.379787 -1.079987,-11.358826l3.231789,-26.708044c0.748962,-6.189685 2.06572,-10.028629 3.950249,-11.516858c1.884529,-1.48812 5.908447,-2.232207 12.071831,-2.232253c6.272354,0.000046 10.131104,0.790235 11.57618,2.370531c1.445007,1.580414 1.804214,5.373265 1.07756,11.37858l-2.169022,17.925333l-16.280983,0l-1.230064,10.165535c-0.146652,1.211617 -0.098648,2.05447 0.14402,2.52858c0.242584,0.47411 0.718422,0.711151 1.427498,0.711151c0.59996,0 1.093483,-0.19096 1.480591,-0.572884c0.387077,-0.381905 0.62368,-0.928448 0.709763,-1.639626l0.124275,-1.027233l0.922684,-8.097656l0,0.000011l0,0zm31.780487,7.18895l3.346497,-27.656271c0.133835,-1.106205 0.093079,-1.896385 -0.122253,-2.370531c-0.215347,-0.474073 -0.636642,-0.711123 -1.263855,-0.711168c-0.790894,0.000046 -1.362625,0.217342 -1.715164,0.651894c-0.3526,0.434649 -0.600586,1.244572 -0.743988,2.429806l-3.346489,27.656271c-0.143478,1.18528 -0.098282,1.995205 0.135498,2.429798c0.233749,0.434612 0.705139,0.651901 1.414215,0.651894c0.681755,0.000008 1.201332,-0.237034 1.558708,-0.711151c0.35733,-0.47411 0.602966,-1.264282 0.736832,-2.370541l0,0zm-19.304543,25.325237l7.979004,-65.940449l12.394829,0l-0.305969,2.528571c1.178314,-0.948165 2.375671,-1.659316 3.592087,-2.133481c1.216385,-0.474055 2.451828,-0.711114 3.706314,-0.71116c3.272552,0.000046 5.514847,1.020697 6.726898,3.061938c1.211975,2.041349 1.529541,5.445705 0.952713,10.213064l-0.186447,1.540854l-3.260437,26.945103c-0.516357,4.266979 -1.644806,7.394753 -3.385315,9.383377c-1.740585,1.988617 -4.206238,2.982929 -7.396957,2.982929c-1.254501,0 -2.432587,-0.237061 -3.534225,-0.71117c-1.101677,-0.474102 -2.126938,-1.185261 -3.075752,-2.13348l-1.811905,14.973896l-12.394836,0l0,0.000008zm52.12719,-35.439537c-1.570084,0.579498 -2.66684,1.191875 -3.290344,1.837162c-0.623535,0.645344 -1.048431,1.903038 -1.274704,3.773117l-0.654953,5.412716c-0.146622,1.21162 -0.098633,2.05447 0.144012,2.52858c0.242615,0.47411 0.71843,0.711163 1.427505,0.711151c0.709061,0.000011 1.232239,-0.210709 1.569611,-0.632141c0.337311,-0.42141 0.585678,-1.290611 0.745026,-2.60759l1.333847,-11.022995l0,0zm-15.137665,-9.448978l0.921921,-7.618891c0.748978,-6.189687 2.06572,-10.02863 3.950256,-11.516859c1.884521,-1.488121 5.908463,-2.232207 12.071808,-2.232253c6.272385,0.000046 10.131104,0.790235 11.576202,2.37054c1.445023,1.580405 1.804199,5.373257 1.077576,11.378572l-4.857224,40.141092l-12.313019,0l0.291626,-2.410038c-1.338776,0.921871 -2.662491,1.606693 -3.97113,2.054462c-1.30867,0.447762 -2.672073,0.671654 -4.090164,0.671654c-3.218033,0 -5.351135,-0.908714 -6.399338,-2.726116c-1.048218,-1.81741 -1.237656,-5.491745 -0.568359,-11.023014l0.635834,-5.254677c0.309143,-2.55489 0.923615,-4.477654 1.843369,-5.768307c0.919785,-1.290604 2.545395,-2.554886 4.876923,-3.792862l11.458649,-6.123894l0.989609,-8.178347c0.086029,-0.711115 0.006607,-1.237906 -0.238281,-1.58036c-0.244949,-0.342365 -0.667389,-0.513569 -1.267334,-0.513615c-0.763626,0.000046 -1.335342,0.217352 -1.715164,0.651901c-0.379852,0.434641 -0.646271,1.284088 -0.79924,2.548332l-1.079681,8.922678l-12.394836,0zm61.071899,32.522202l4.933701,-40.773233c0.124252,-1.027195 0.065887,-1.784447 -0.17511,-2.271767c-0.241043,-0.48723 -0.675171,-0.730869 -1.302383,-0.730913c-0.790909,0.000044 -1.376266,0.217342 -1.756058,0.651894c-0.379883,0.434649 -0.638336,1.218241 -0.77533,2.350786l-4.933701,40.773233l-12.231216,0l4.933685,-40.773233c0.127472,-1.053534 0.076721,-1.817366 -0.152222,-2.291519c-0.229019,-0.474066 -0.670761,-0.711117 -1.325241,-0.711161c-0.818161,0.000044 -1.410339,0.217342 -1.776535,0.651894c-0.366226,0.434649 -0.617859,1.218241 -0.754883,2.350786l-4.933716,40.773233l-12.313004,0l6.482651,-53.574135l12.394821,0l-0.344193,2.84465c1.224686,-1.106205 2.419556,-1.909551 3.584625,-2.410046c1.165039,-0.500386 2.41571,-0.75062 3.752029,-0.750674c1.527161,0.000054 2.86409,0.276619 4.010757,0.829685c1.146606,0.553184 2.25705,1.461889 3.331314,2.726115c1.42514,-1.185215 2.882645,-2.074159 4.372498,-2.666847c1.489761,-0.592582 2.998276,-0.888899 4.525513,-0.888953c3.272522,0.000054 5.514816,1.020706 6.726883,3.061938c1.21196,2.041349 1.529526,5.445705 0.952698,10.213072l-0.186447,1.540846l-4.728119,39.074356l-12.313019,0l0,-0.000008z" id="text3247" stroke-width="1px" fill="#26619d"/>
   <path stroke="null" d="m79.560028,14.369268l-49.573399,17.94697l0,10.376507l46.153522,17.917744c0.346649,-4.614155 0.365555,-4.820354 0.730728,-9.704224l-34.140163,-13.270237l36.098537,-13.036398c0.265808,-3.621286 0.51886,-7.287931 0.730774,-10.230362l0,0z" id="path3251" stroke-miterlimit="4" stroke-width="10" fill-rule="evenodd" fill="#26619d"/>
   <path stroke="null" d="m226.355194,60.610489l49.573395,-17.946972l0,-10.376507l-46.153534,-17.917742c-0.346634,4.614153 -0.36557,4.82036 -0.730743,9.704231l34.140167,13.270235l-36.098557,13.036392c-0.265762,3.621284 -0.518799,7.28793 -0.730728,10.23035l0,0.000011z" id="path3276" stroke-miterlimit="4" stroke-width="10" fill-rule="evenodd" fill="#26619d"/>
  </g>
 </g>
</svg>